<?xml version="1.0" encoding="UTF-8"?>
<svg version="1.1" viewBox="0 0 2048 597" width="1280" height="1280" xmlns="http://www.w3.org/2000/svg">
<path transform="translate(1815)" d="m0 0h179l-2 4-4 4-4 9-3 5-2 5h-2v2l-3 3h-2l-1 5-5 5-1 4h-2v2h-2l-1 3h-2l-1 5-3 3-3 5-2 2-1 4-5 5-5 2-5 5-5 3-11 11-4 1-1 2h-2v2h-2l-1 3-5 2-5 5-6 2v2l-5 2-1 1-8 1-10 6-5 2-5 3-7 2-11 1-6 4h-4v2l-5 2-11 6-1 2h-7v2l-9 1-2 2-50 1-1 1-13 1-2 1-21 2-1 1-8 1-1 1-9 2-2 1-62 1-1 1h-9v2l-7 1-2-1v-2l-24 1-6 4h-2v2h-2l-2 6-2 2-1 4h-2l1 12 4 8-1 5 1 2-2 9v45l2 3v84l-2 2-2 7-4 7h-2v9l-4 10v30l2 3-2 10 2 1v48h2v39h-2v13l-7 8-5 3-8 1v2l-6-2h-7l-7-3-3-3v-2h-2v-2h-2v-2l-3-1-2-5-3-3-2-4v-4h-2l-9-19-4-6-2-5-2-7v-4h-2l-1-3v-9l3-9 3-2 4-7 3-3h2l2-6 2-7 1-19-1-7v-6l1-4-1-16v-12l2-6 1-7h2l1-5 3-6 3-12 1-1 2-23 1-4-1-1-1-37-1-17-1-2-1-31-1-1-1-25-1-1-1-37-2-5-1-13-1-1v-11h-2l-3-6 1-6-4-6-7-2h-20l-2 1-9 1-1 2h-16l-1-1-17-1h-27l-46 1h-3l-6-1-2 2h-371l-7-3v2l-3 1-4-1-5 1-5-1-5 1-1-1h-16l-2 1h-10l-1-1h-25l-5 1-1-1h-18l-1 1h-8l-4-2-5 1-6 1-1-1h-65l-3 3-4-1-30-1-1-1-9-1-5 1-3 1h-8l-1-1-27-1h-126l-131-1h-4l-7-1-1 1h-43l-2-1h-18l-12 5-5 4-8 7-2 9h-2v44l-1 1-1 10-2 5-1 18-1 1-2 10-1 12-2 2-3 18-4 6-1 8-4 9-4 11-5 10-1 4h-2l-1 5-4 5-5 8-4 5-3 5-6 8-3 3-3 5-5 6h-2l-1 5-5 1v2h-2l-1 3h-2l-2 6-10 10-4 1-14 14-5 3-3 3-5 3-5 5h-2v2l-5 3h-2v2l-5 2-3 3-11 6-15 8-6 3-6 2h-6v2l-13 1h-9l-11-1v-2h-6l-11-6-5-5-5-3-3-5-6-11-3-10v-18l3-12 4-9 2-2 1-4h2l2-4 4-6 6-3 3-4 5-2 6-4 8-5 10-6 5-2 2-3h5l2-4 5-1v-2h2v-2l8-7 2-3 5-2 5-5 3-5 7-7 1-2h2l2-6 5-5 7-14 4-6 4-12 2-3 1-5h2v-6l1-1 1-11 1-1 1-10 2-2v-40l-2-3 1-6-1-1v-19l2-5 1-9h2l1-5 4-6 4-4 3-5 11-11 5-3 9-9 14-7h2l1-3 8-1 8-3 1-1 20-1 3-1 54-1 4-1 2 1h13l1-1h6 4 68l4 1 5-1 1 1 82 1 1 1 9-1 1 1 111 1h3l4 1 1-1h10l2 1 65 1h45l97 1 4 1 4-1 1 1h353l4-1 82-1h31l3-2 31-1 1-1 63-1 5-1 23-1 2-2 28-1h4l2-1 22-1 1-1 43-2 1-1 25-1 1-1 23-2 1-1 27-1 4-1 26-1 3-2h25v-2h24v-2l16-1 14-4 10-1 6-4 7-2 6-3z" fill="#D500D4"/>
</svg>
