<?xml version="1.0" encoding="utf-8"?>
<!-- Generator: Adobe Illustrator 12.0.0, SVG Export Plug-In . SVG Version: 6.00 Build 51448)  -->
<!DOCTYPE svg PUBLIC "-//W3C//DTD SVG 1.1//EN" "http://www.w3.org/Graphics/SVG/1.1/DTD/svg11.dtd" [
	<!ENTITY ns_svg "http://www.w3.org/2000/svg">
	<!ENTITY ns_xlink "http://www.w3.org/1999/xlink">
]>
<svg  version="1.1" id="Layer_1" xmlns="&ns_svg;" xmlns:xlink="&ns_xlink;" width="100mm" height="100mm"
	 viewBox="0 0 397.944 396.003" overflow="visible" enable-background="new 0 0 397.944 396.003" xml:space="preserve">
<g>
	<g>
		<path fill="#005596" enable-background="new    " d="M70.735,269.726c22.561-0.583,41.415-12.287,56.228-34.395
			c-1.666-1.988-4.054-4.651-6.124-5.942c-7.989-4.992-16.385-6.289-23.042-3.557c-5.003,1.997-7.896,5.093-8.848,9.462
			c-1.64,7.501,2.98,16.453,5.014,18.591l5.079,5.344l-7.363-0.362c-29.803-1.482-53.375-15.493-64.681-38.447
			c-10.427-21.168-8.745-47.008,4.299-65.829c16.064-23.196,51.306-35.913,90.161-20.609
			c-10.226-11.341-26.786-24.173-50.064-24.757c-17.122-0.422-33.722,6.351-46.732,19.075C8.94,143.672-0.046,166.126,0,189.896
			c0.04,23.446,9.086,45.674,24.82,60.992C37.717,263.454,54.023,270.141,70.735,269.726z"/>
		<path fill="#005596" enable-background="new    " d="M137.886,300.655c-4.576-3.765-7.303-8.023-7.303-12.9
			c0-3.747,1.701-9.084,8.378-13.997c-0.579-8.776-1.919-16.125-3.663-22.229c-36.754,54.026-83.613,39.898-97.469,33.984
			c-10.854-4.641-18.923-11.174-24.647-16.986c9.804,25.738,35.544,74.482,88.097,65.83
			C118.079,331.562,134.174,316.558,137.886,300.655z"/>
		<path fill="#005596" enable-background="new    " d="M327.208,269.726c16.713,0.415,33.021-6.283,45.919-18.844
			c15.73-15.32,24.776-37.549,24.817-60.986c0.043-23.779-8.949-46.231-24.666-61.597c-13.016-12.724-29.618-19.497-46.754-19.075
			c-23.273,0.583-39.825,13.416-50.047,24.757c38.851-15.296,74.096-2.58,90.159,20.609c13.048,18.815,14.739,44.652,4.317,65.823
			c-11.304,22.96-34.886,36.971-64.688,38.453l-7.367,0.362l5.081-5.344c2.037-2.138,6.654-11.09,5.016-18.591
			c-0.955-4.369-3.85-7.465-8.875-9.473c-6.629-2.728-15.021-1.43-23.021,3.567c-2.069,1.291-4.457,3.954-6.121,5.942
			C285.773,257.438,304.634,269.143,327.208,269.726z"/>
		<path fill="#005596" enable-background="new    " d="M163.842,154.491l8.698,24.157c3.897,10.015,7.58,19.474,10.424,31.267
			c4.704,19.543,5.836,35.613,6.747,48.53l0.161,2.283c0,0,0.012,0.221,0.015,0.265c3.274-0.104,8.567-0.265,8.567-0.265
			c-0.002,0,0.996,0.125,1.019,0c0,0,5.317,0.166,8.587,0.265c0-0.044,0.188-2.692,0.188-2.692
			c0.957-13.555,2.04-28.912,6.737-48.386c2.849-11.816,6.537-21.298,10.441-31.336c0,0,8.673-24.072,8.679-24.087
			c4.923-15.389,6.948-30.169,6.948-44.076c0-56.392-33.324-98.409-42.086-108.476c-8.768,10.013-42.114,51.831-42.114,108.284
			C156.854,124.175,158.891,139.019,163.842,154.491z"/>
		<path fill="#005596" enable-background="new    " d="M101.579,98.751c-5.345-10.788-7.574-21.024-7.574-30.477
			c0-22.399,11.946-40.335,21.373-51.055C95.1,26.763,56.879,50.191,28.924,96.041C42.879,87.058,67.006,80.131,101.579,98.751z"/>
		<path fill="#005596" enable-background="new    " d="M199.473,298.497c33.019,0,48.676-7.97,51.042-10.742
			c-2.372-2.771-18.029-10.744-51.042-10.744h-1.019c-32.998,0-48.662,7.973-51.031,10.744c2.366,2.772,18.021,10.742,51.031,10.742
			H199.473z"/>
		<path fill="#005596" enable-background="new    " d="M154.25,314.607c-1.424,5.346-15.153,49.272-76.047,41.635
			c10.954,7.776,29.935,19.951,49.337,26.451c27.103-13.102,42.352-36.512,45.132-69.744c-6.467-0.928-12.261-2.19-17.419-3.747
			C154.815,311.682,154.288,314.585,154.25,314.607z"/>
		<path fill="#005596" enable-background="new    " d="M111.453,203.419c22.381,6.514,38.63,29.402,43.466,61.231
			c0,0,0.109,1.065,0.202,1.904c4.986-1.516,10.433-2.771,16.438-3.677c-1.198-16.719-4.583-55.666-23.909-89.3
			c-13.683-26.788-52.884-33.893-78.785-22.342c-8.909,3.977-25.861,14.711-25.861,38.6c0,7.165,1.522,15.52,5.251,25.224
			c6.848,13.207,15.517,18.859,21.29,21.533c-0.695-2.312-1.254-4.83-1.254-7.588c0-5.081,1.556-10.681,6.087-15.88
			C83.157,203.035,97.359,199.326,111.453,203.419z"/>
		<path fill="#005596" enable-background="new    " d="M323.563,213.125c4.521,5.199,6.08,10.787,6.08,15.872
			c0,2.766-0.564,5.296-1.262,7.607c5.77-2.64,14.413-8.23,21.173-21.245c3.78-9.828,5.323-18.276,5.323-25.509
			c0-23.949-16.922-34.653-25.822-38.614c-25.9-11.55-65.087-4.445-78.826,22.475c-19.278,33.501-22.649,72.472-23.842,89.167
			c6.017,0.905,11.457,2.161,16.427,3.677c0.087-0.767,0.191-1.674,0.216-1.904c4.827-31.829,21.076-54.718,43.458-61.231
			C300.582,199.326,314.789,203.044,323.563,213.125z"/>
		<path fill="#005596" enable-background="new    " d="M243.686,314.607l-0.029,0.091c0,0-0.521-2.956-0.972-5.49
			c-5.155,1.551-10.954,2.813-17.427,3.741c2.823,33.247,18.069,56.651,45.14,69.744c19.46-6.518,38.424-18.689,49.355-26.462
			C258.855,363.88,245.115,319.953,243.686,314.607z"/>
		<path fill="#005596" enable-background="new    " d="M296.374,98.751c34.561-18.627,58.692-11.686,72.649-2.71
			c-27.959-45.85-66.185-69.278-86.462-78.822c9.429,10.72,21.375,28.656,21.375,51.07C303.937,77.727,301.711,87.97,296.374,98.751
			z"/>
		<path fill="#005596" enable-background="new    " d="M199.473,314.782c0,0-0.522-0.029-1.019,0c0,0-5.285-0.16-8.588-0.259
			c-1.037,26.52-4.53,54.192-29.344,77.707c14.635,3.303,33.875,3.749,37.996,3.772h0.894c4.135-0.023,23.372-0.47,38.001-3.772
			c-24.795-23.515-28.291-51.188-29.333-77.707C204.767,314.622,199.473,314.782,199.473,314.782z"/>
		<path fill="#005596" enable-background="new    " d="M360.124,285.513c-13.862,5.905-60.742,20.024-97.476-33.984
			c-1.741,6.087-3.084,13.436-3.665,22.237c6.662,4.905,8.363,10.242,8.363,13.989c0,4.877-2.724,9.13-7.299,12.895
			c3.726,15.908,19.824,30.921,36.619,33.707c52.54,8.652,78.281-40.083,88.089-65.821c-5.72,5.813-13.787,12.337-24.629,16.978
			H360.124z"/>
	</g>
	<path fill="#005596" enable-background="new    " d="M135.431,122.329c-2.115-9.199-3.506-18.121-3.506-26.421
		c0-48.046,31.306-80.68,49.875-95.907c-27.682,7.049-49.017,22.269-58.911,43.991c-4.07,8.938-6.052,18.414-6.052,28.02
		C116.836,89.126,123.396,106.597,135.431,122.329z"/>
	<path fill="#005596" enable-background="new    " d="M261.978,122.329c2.114-9.199,3.507-18.121,3.507-26.421
		c0-48.046-31.304-80.68-49.876-95.907c27.686,7.049,49.018,22.269,58.913,43.991c4.071,8.938,6.054,18.414,6.054,28.02
		C280.575,89.126,274.015,106.597,261.978,122.329z"/>
</g>
</svg>
